# Blender v3.2.1 OBJ File: ''
# www.blender.org
mtllib banana.mtl
o Cube
v 1.377295 0.885285 -0.695263
v 1.377295 -0.885285 -0.695263
v 1.377295 0.885285 1.075307
v 1.377295 -0.885285 1.075307
v -0.393275 0.885285 -0.695263
v -0.393275 -0.885285 -0.695263
v -0.393275 0.885285 1.075307
v -0.393275 -0.885285 1.075307
v 3.524142 0.885285 -0.461075
v 3.524142 -0.885285 -0.461075
v 2.938187 0.885285 1.209725
v 2.938187 -0.885285 1.209725
v 5.762502 0.885285 0.616476
v 5.762502 -0.885285 0.616476
v 4.625045 0.885285 1.973350
v 4.625045 -0.885285 1.973350
v 7.286992 0.885285 2.181863
v 7.286992 -0.885285 2.181863
v 5.924339 0.885285 3.312390
v 5.924339 -0.885285 3.312390
v 7.286992 0.885285 2.181863
v 7.286992 -0.885285 2.181863
v 5.924339 0.885285 3.312390
v 5.924339 -0.885285 3.312390
v 8.282917 0.885285 3.959369
v 8.282917 -0.885285 3.959369
v 6.522010 0.885285 4.144092
v 6.522010 -0.885285 4.144092
v -1.367385 -0.325240 -0.325240
v -1.367385 -0.325240 0.325240
v -1.367385 0.325240 0.325240
v -1.367385 0.325240 -0.325240
v 7.881203 0.388622 4.465194
v 7.881203 -0.388622 4.465194
v 7.108201 0.388622 4.546283
v 7.108201 -0.388622 4.546283
v 7.964267 0.388622 5.257020
v 7.964267 -0.388622 5.257020
v 7.191265 0.388622 5.338109
v 7.191265 -0.388622 5.338109
v 7.457068 0.230242 5.982732
v 7.457068 -0.230242 5.982732
v 6.999097 0.230242 6.030775
v 6.999097 -0.230242 6.030775
v -0.393275 -0.885285 0.190022
v 0.492010 -0.885285 -0.695263
v 1.377295 0.000000 -0.695263
v -0.393275 0.000000 1.075307
v 1.377295 0.000000 1.075307
v -0.393275 0.000000 -0.695263
v 0.492010 0.885285 1.075307
v 1.377295 0.885285 0.190022
v 0.492010 -0.885285 1.075307
v -0.393275 0.885285 0.190022
v 0.492010 0.885285 -0.695263
v 1.377295 -0.885285 0.190022
v 3.524142 0.000000 -0.461075
v 2.938187 0.000000 1.209725
v 3.231164 0.885285 0.374325
v 3.231164 -0.885285 0.374325
v 2.157741 -0.885285 1.142516
v 2.157741 0.885285 1.142516
v 2.450718 0.885285 -0.578169
v 2.450718 -0.885285 -0.578169
v 5.762502 0.000000 0.616476
v 4.625045 0.000000 1.973350
v 5.193773 0.885285 1.294913
v 5.193773 -0.885285 1.294913
v 4.643322 -0.885285 0.077700
v 3.781616 -0.885285 1.591538
v 3.781616 0.885285 1.591538
v 4.643322 0.885285 0.077700
v 7.286992 0.000000 2.181863
v 5.924339 0.000000 3.312390
v 6.605666 0.885285 2.747127
v 6.605666 -0.885285 2.747127
v 5.274692 -0.885285 2.642870
v 5.274692 0.885285 2.642870
v 6.524747 0.885285 1.399169
v 6.524747 -0.885285 1.399169
v 7.286992 0.000000 2.181863
v 5.924339 0.000000 3.312390
v 6.605666 0.885285 2.747127
v 6.605666 -0.885285 2.747127
v 5.924339 0.885285 3.312390
v 7.286992 0.885285 2.181863
v 7.286992 -0.885285 2.181863
v 5.924339 -0.885285 3.312390
v 8.282917 0.000000 3.959369
v 6.522010 0.000000 4.144092
v 7.402464 0.885285 4.051730
v 7.402464 -0.885285 4.051730
v 7.784955 -0.885285 3.070616
v 6.223175 -0.885285 3.728241
v 6.223175 0.885285 3.728241
v 7.784955 0.885285 3.070616
v -1.367385 -0.325240 0.000000
v -1.367385 0.000000 0.325240
v -1.367385 0.000000 -0.325240
v -1.367385 0.325240 0.000000
v -0.880330 -0.605263 0.700274
v -0.880330 -0.605263 -0.510252
v -0.880330 0.605263 -0.510252
v -0.880330 0.605263 0.700274
v 7.881203 0.000000 4.465194
v 7.108201 0.000000 4.546283
v 7.494702 0.388622 4.505739
v 7.494702 -0.388622 4.505739
v 6.815105 0.636953 4.345187
v 8.082060 0.636953 4.212281
v 8.082060 -0.636953 4.212281
v 6.815105 -0.636953 4.345187
v 7.964267 0.000000 5.257020
v 7.191265 0.000000 5.338109
v 7.577765 0.388622 5.297565
v 7.577765 -0.388622 5.297565
v 7.922735 -0.388622 4.861107
v 7.149733 -0.388622 4.942196
v 7.149733 0.388622 4.942196
v 7.922735 0.388622 4.861107
v 7.457068 0.000000 5.982732
v 6.999097 0.000000 6.030775
v 7.228083 0.230242 6.006753
v 7.228083 -0.230242 6.006753
v 7.095181 0.309432 5.684442
v 7.710668 0.309432 5.619876
v 7.710668 -0.309432 5.619876
v 7.095181 -0.309432 5.684442
v 7.095181 0.000000 5.684442
v 7.402924 -0.309432 5.652159
v 7.710668 0.000000 5.619876
v 7.228083 0.000000 6.006753
v 7.922735 0.000000 4.861107
v 7.536234 0.388622 4.901651
v 7.149733 0.000000 4.942196
v 7.402924 0.309432 5.652159
v 6.815105 0.000000 4.345187
v 7.448583 -0.636953 4.278734
v 8.082060 0.000000 4.212281
v 7.536234 -0.388622 4.901651
v -0.880330 0.000000 0.700274
v -0.880330 0.000000 -0.510252
v -0.880330 0.605263 0.095011
v -1.367385 0.000000 0.000000
v 7.784955 0.000000 3.070616
v 7.004065 0.885285 3.399428
v 6.223175 0.000000 3.728241
v 7.448583 0.636953 4.278734
v 5.924339 0.000000 3.312390
v 6.605666 -0.885285 2.747127
v 7.286992 0.000000 2.181863
v 7.004065 -0.885285 3.399428
v 5.899719 -0.885285 2.021020
v 6.524747 0.000000 1.399169
v 5.899719 0.885285 2.021020
v 6.605666 0.885285 2.747127
v 4.643322 0.000000 0.077700
v 4.212469 0.885285 0.834619
v 3.781616 0.000000 1.591538
v 5.274692 0.000000 2.642870
v 2.304229 0.885285 0.282174
v 2.304229 -0.885285 0.282174
v 2.450718 0.000000 -0.578169
v 4.212469 -0.885285 0.834619
v 0.492010 0.000000 -0.695263
v 2.157741 0.000000 1.142516
v 0.492010 -0.885285 0.190022
v -0.880330 -0.605263 0.095011
v 0.492010 0.000000 1.075307
v 0.492010 0.885285 0.190022
vt 0.750000 0.625000
vt 0.875000 0.625000
vt 0.875000 0.750000
vt 0.750000 0.750000
vt 0.500000 0.875000
vt 0.625000 0.875000
vt 0.625000 1.000000
vt 0.500000 1.000000
vt 0.125000 0.625000
vt 0.125000 0.750000
vt 0.125000 0.750000
vt 0.125000 0.625000
vt 0.250000 0.625000
vt 0.375000 0.625000
vt 0.375000 0.750000
vt 0.250000 0.750000
vt 0.500000 0.750000
vt 0.375000 0.750000
vt 0.375000 0.750000
vt 0.500000 0.750000
vt 0.500000 0.375000
vt 0.625000 0.375000
vt 0.625000 0.500000
vt 0.500000 0.500000
vt 0.375000 0.625000
vt 0.375000 0.500000
vt 0.375000 0.500000
vt 0.375000 0.625000
vt 0.500000 0.500000
vt 0.625000 0.500000
vt 0.625000 0.500000
vt 0.500000 0.500000
vt 0.375000 0.625000
vt 0.375000 0.500000
vt 0.375000 0.500000
vt 0.375000 0.625000
vt 0.625000 0.625000
vt 0.625000 0.750000
vt 0.625000 0.750000
vt 0.625000 0.625000
vt 0.500000 0.750000
vt 0.375000 0.750000
vt 0.375000 0.750000
vt 0.500000 0.750000
vt 0.500000 0.750000
vt 0.375000 0.750000
vt 0.375000 0.750000
vt 0.500000 0.750000
vt 0.625000 0.625000
vt 0.625000 0.750000
vt 0.625000 0.750000
vt 0.625000 0.625000
vt 0.500000 0.500000
vt 0.625000 0.500000
vt 0.625000 0.500000
vt 0.500000 0.500000
vt 0.625000 0.625000
vt 0.625000 0.750000
vt 0.625000 0.750000
vt 0.625000 0.625000
vt 0.625000 0.625000
vt 0.625000 0.750000
vt 0.625000 0.750000
vt 0.625000 0.625000
vt 0.500000 0.500000
vt 0.625000 0.500000
vt 0.625000 0.500000
vt 0.500000 0.500000
vt 0.375000 0.625000
vt 0.375000 0.500000
vt 0.375000 0.500000
vt 0.375000 0.625000
vt 0.375000 0.625000
vt 0.375000 0.500000
vt 0.375000 0.500000
vt 0.375000 0.625000
vt 0.500000 0.500000
vt 0.625000 0.500000
vt 0.625000 0.500000
vt 0.500000 0.500000
vt 0.375000 0.625000
vt 0.375000 0.500000
vt 0.375000 0.500000
vt 0.375000 0.625000
vt 0.500000 0.750000
vt 0.375000 0.750000
vt 0.375000 0.750000
vt 0.500000 0.750000
vt 0.625000 0.625000
vt 0.625000 0.750000
vt 0.625000 0.750000
vt 0.625000 0.625000
vt 0.500000 0.750000
vt 0.375000 0.750000
vt 0.375000 0.750000
vt 0.500000 0.750000
vt 0.625000 0.625000
vt 0.625000 0.750000
vt 0.625000 0.750000
vt 0.625000 0.625000
vt 0.500000 0.500000
vt 0.625000 0.500000
vt 0.625000 0.500000
vt 0.500000 0.500000
vt 0.500000 0.125000
vt 0.625000 0.125000
vt 0.625000 0.250000
vt 0.500000 0.250000
vt 0.875000 0.625000
vt 0.875000 0.500000
vt 0.875000 0.500000
vt 0.875000 0.625000
vt 0.500000 0.250000
vt 0.375000 0.250000
vt 0.375000 0.250000
vt 0.500000 1.000000
vt 0.625000 1.000000
vt 0.625000 1.000000
vt 0.500000 1.000000
vt 0.375000 0.625000
vt 0.375000 0.500000
vt 0.375000 0.500000
vt 0.375000 0.625000
vt 0.500000 0.500000
vt 0.625000 0.500000
vt 0.625000 0.500000
vt 0.500000 0.500000
vt 0.375000 0.625000
vt 0.375000 0.500000
vt 0.375000 0.500000
vt 0.375000 0.625000
vt 0.500000 0.750000
vt 0.375000 0.750000
vt 0.375000 0.750000
vt 0.500000 0.750000
vt 0.625000 0.625000
vt 0.625000 0.750000
vt 0.625000 0.750000
vt 0.625000 0.625000
vt 0.500000 0.750000
vt 0.375000 0.750000
vt 0.375000 0.750000
vt 0.500000 0.750000
vt 0.625000 0.625000
vt 0.625000 0.750000
vt 0.625000 0.750000
vt 0.625000 0.625000
vt 0.500000 0.500000
vt 0.625000 0.500000
vt 0.625000 0.500000
vt 0.500000 0.500000
vt 0.500000 0.625000
vt 0.500000 0.750000
vt 0.500000 0.500000
vt 0.625000 0.500000
vt 0.625000 0.500000
vt 0.500000 0.500000
vt 0.375000 0.625000
vt 0.375000 0.500000
vt 0.375000 0.500000
vt 0.375000 0.625000
vt 0.500000 0.750000
vt 0.375000 0.750000
vt 0.375000 0.750000
vt 0.375000 1.000000
vt 0.375000 1.000000
vt 0.375000 1.000000
vt 0.625000 0.250000
vt 0.625000 0.250000
vt 0.500000 0.250000
vt 0.375000 0.250000
vt 0.875000 0.750000
vt 0.875000 0.750000
vt 0.875000 0.500000
vt 0.375000 0.125000
vt 0.375000 0.000000
vt 0.500000 0.000000
vt 0.625000 0.000000
vt 0.625000 0.625000
vt 0.625000 0.750000
vt 0.375000 0.500000
vt 0.375000 0.375000
vt 0.500000 0.750000
vt 0.125000 0.625000
vt 0.125000 0.750000
vt 0.125000 0.500000
vt 0.250000 0.500000
vt 0.125000 0.500000
vt 0.125000 0.500000
vt 0.375000 0.875000
vt 0.750000 0.500000
vn 0.0000 1.0000 0.0000
vn 0.0000 0.0000 1.0000
vn -0.4984 -0.8669 0.0000
vn 0.0000 -1.0000 0.0000
vn -0.0858 0.0000 0.9963
vn 0.0000 0.0000 -1.0000
vn 0.1084 0.0000 -0.9941
vn -0.7177 0.0000 0.6964
vn -0.4124 0.0000 0.9110
vn 0.4338 0.0000 -0.9010
vn 0.7164 0.0000 -0.6977
vn 0.0765 0.6804 0.7288
vn -0.8121 0.0000 0.5836
vn 0.8724 0.0000 -0.4888
vn -1.0000 0.0000 0.0000
vn -0.4984 0.8669 0.0000
vn -0.3551 0.0000 -0.9348
vn -0.6101 0.0000 0.7923
vn 0.7831 0.0000 0.6219
vn 0.0765 -0.6804 0.7288
vn -0.5658 0.0000 0.8246
vn 0.0240 0.9731 0.2292
vn -0.9945 0.0000 0.1043
vn 0.9945 0.0000 -0.1043
vn 0.1043 0.0000 0.9945
vn 0.8197 0.0000 0.5729
vn 0.0240 -0.9731 0.2292
vn -0.9636 0.0000 -0.2673
usemtl Material
s off
f 170/1/1 54/2/1 7/3/1 51/4/1
f 169/5/2 51/6/2 7/7/2 48/8/2
f 168/9/3 101/10/3 30/11/3 97/12/3
f 167/13/4 56/14/4 4/15/4 53/16/4
f 166/17/5 61/18/5 12/19/5 58/20/5
f 165/21/6 55/22/6 1/23/6 47/24/6
f 164/25/4 69/26/4 14/27/4 68/28/4
f 163/29/7 63/30/7 9/31/7 57/32/7
f 162/33/4 64/34/4 10/35/4 60/36/4
f 161/37/1 62/38/1 11/39/1 59/40/1
f 160/41/8 77/42/8 20/43/8 74/44/8
f 159/45/9 70/46/9 16/47/9 66/48/9
f 158/49/1 71/50/1 15/51/1 67/52/1
f 157/53/10 72/54/10 13/55/10 65/56/10
f 156/57/2 85/58/2 23/59/2 83/60/2
f 155/61/1 78/62/1 19/63/1 75/64/1
f 154/65/11 79/66/11 17/67/11 73/68/11
f 153/69/4 80/70/4 18/71/4 76/72/4
f 152/73/4 93/74/4 26/75/4 92/76/4
f 151/77/2 86/78/2 21/79/2 81/80/2
f 150/81/2 87/82/2 22/83/2 84/84/2
f 149/85/2 88/86/2 24/87/2 82/88/2
f 148/89/12 109/90/12 35/91/12 107/92/12
f 147/93/13 94/94/13 28/95/13 90/96/13
f 146/97/1 95/98/1 27/99/1 91/100/1
f 145/101/14 96/102/14 25/103/14 89/104/14
f 144/105/15 100/106/15 32/107/15 99/108/15
f 143/109/16 103/110/16 32/111/16 100/112/16
f 142/113/17 102/114/17 29/115/17 99/108/17
f 141/116/18 104/117/18 31/118/18 98/119/18
f 140/120/4 117/121/4 38/122/4 116/123/4
f 139/124/19 110/125/19 33/126/19 105/127/19
f 138/128/20 111/129/20 34/130/20 108/131/20
f 137/132/21 112/133/21 36/134/21 106/135/21
f 136/136/22 125/137/22 43/138/22 123/139/22
f 135/140/23 118/141/23 40/142/23 114/143/23
f 134/144/1 119/145/1 39/146/1 115/147/1
f 133/148/24 120/149/24 37/150/24 113/151/24
f 132/152/25 123/139/25 43/138/25 122/153/25
f 131/154/26 126/155/26 41/156/26 121/157/26
f 130/158/27 127/159/27 42/160/27 124/161/27
f 129/162/28 128/163/28 44/164/28 122/153/28
f 125/137/28 129/162/28 122/153/28 43/138/28
f 39/146/28 114/143/28 129/162/28 125/137/28
f 114/143/28 40/142/28 128/163/28 129/162/28
f 128/163/27 130/158/27 124/161/27 44/164/27
f 40/142/27 116/123/27 130/158/27 128/163/27
f 116/123/27 38/122/27 127/159/27 130/158/27
f 127/159/26 131/154/26 121/157/26 42/160/26
f 38/122/26 113/151/26 131/154/26 127/159/26
f 113/151/26 37/150/26 126/155/26 131/154/26
f 124/161/25 132/152/25 122/153/25 44/164/25
f 42/160/25 121/157/25 132/152/25 124/161/25
f 121/157/25 41/156/25 123/139/25 132/152/25
f 117/121/24 133/148/24 113/151/24 38/122/24
f 34/130/24 105/127/24 133/148/24 117/121/24
f 105/127/24 33/126/24 120/149/24 133/148/24
f 120/149/1 134/144/1 115/147/1 37/150/1
f 33/126/1 107/92/1 134/144/1 120/149/1
f 107/92/1 35/91/1 119/145/1 134/144/1
f 119/145/23 135/140/23 114/143/23 39/146/23
f 35/91/23 106/135/23 135/140/23 119/145/23
f 106/135/23 36/134/23 118/141/23 135/140/23
f 126/155/22 136/136/22 123/139/22 41/156/22
f 37/150/22 115/147/22 136/136/22 126/155/22
f 115/147/22 39/146/22 125/137/22 136/136/22
f 109/90/21 137/132/21 106/135/21 35/91/21
f 27/99/21 90/96/21 137/132/21 109/90/21
f 90/96/21 28/95/21 112/133/21 137/132/21
f 112/133/20 138/128/20 108/131/20 36/134/20
f 28/95/20 92/76/20 138/128/20 112/133/20
f 92/76/20 26/75/20 111/129/20 138/128/20
f 111/129/19 139/124/19 105/127/19 34/130/19
f 26/75/19 89/104/19 139/124/19 111/129/19
f 89/104/19 25/103/19 110/125/19 139/124/19
f 118/141/4 140/120/4 116/123/4 40/142/4
f 36/134/4 108/131/4 140/120/4 118/141/4
f 108/131/4 34/130/4 117/121/4 140/120/4
f 101/165/18 141/116/18 98/119/18 30/166/18
f 8/167/18 48/8/18 141/116/18 101/165/18
f 48/8/18 7/7/18 104/117/18 141/116/18
f 103/168/17 142/113/17 99/108/17 32/107/17
f 5/169/17 50/170/17 142/113/17 103/168/17
f 50/170/17 6/171/17 102/114/17 142/113/17
f 104/172/16 143/109/16 100/112/16 31/173/16
f 7/3/16 54/2/16 143/109/16 104/172/16
f 54/2/16 5/174/16 103/110/16 143/109/16
f 97/175/15 144/105/15 99/108/15 29/115/15
f 30/176/15 98/177/15 144/105/15 97/175/15
f 98/177/15 31/178/15 100/106/15 144/105/15
f 93/74/14 145/101/14 89/104/14 26/75/14
f 22/83/14 81/80/14 145/101/14 93/74/14
f 81/80/14 21/79/14 96/102/14 145/101/14
f 96/102/1 146/97/1 91/100/1 25/103/1
f 21/79/1 83/60/1 146/97/1 96/102/1
f 83/60/1 23/59/1 95/98/1 146/97/1
f 95/98/13 147/93/13 90/96/13 27/99/13
f 23/59/13 82/88/13 147/93/13 95/98/13
f 82/88/13 24/87/13 94/94/13 147/93/13
f 110/125/12 148/89/12 107/92/12 33/126/12
f 25/103/12 91/100/12 148/89/12 110/125/12
f 91/100/12 27/99/12 109/90/12 148/89/12
f 85/58/2 149/85/2 82/88/2 23/59/2
f 19/63/2 74/44/2 149/85/2 85/58/2
f 74/44/2 20/43/2 88/86/2 149/85/2
f 88/86/2 150/81/2 84/84/2 24/87/2
f 20/43/2 76/72/2 150/81/2 88/86/2
f 76/72/2 18/71/2 87/82/2 150/81/2
f 87/82/2 151/77/2 81/80/2 22/83/2
f 18/71/2 73/68/2 151/77/2 87/82/2
f 73/68/2 17/67/2 86/78/2 151/77/2
f 94/94/4 152/73/4 92/76/4 28/95/4
f 24/87/4 84/84/4 152/73/4 94/94/4
f 84/84/4 22/83/4 93/74/4 152/73/4
f 77/42/4 153/69/4 76/72/4 20/43/4
f 16/47/4 68/28/4 153/69/4 77/42/4
f 68/28/4 14/27/4 80/70/4 153/69/4
f 80/70/11 154/65/11 73/68/11 18/71/11
f 14/27/11 65/56/11 154/65/11 80/70/11
f 65/56/11 13/55/11 79/66/11 154/65/11
f 79/66/1 155/61/1 75/64/1 17/67/1
f 13/55/1 67/52/1 155/61/1 79/66/1
f 67/52/1 15/51/1 78/62/1 155/61/1
f 86/78/2 156/57/2 83/60/2 21/79/2
f 17/67/2 75/64/2 156/57/2 86/78/2
f 75/64/2 19/63/2 85/58/2 156/57/2
f 69/26/10 157/53/10 65/56/10 14/27/10
f 10/35/10 57/32/10 157/53/10 69/26/10
f 57/32/10 9/31/10 72/54/10 157/53/10
f 72/54/1 158/49/1 67/52/1 13/55/1
f 9/31/1 59/40/1 158/49/1 72/54/1
f 59/40/1 11/39/1 71/50/1 158/49/1
f 71/50/9 159/45/9 66/48/9 15/51/9
f 11/39/9 58/20/9 159/45/9 71/50/9
f 58/20/9 12/19/9 70/46/9 159/45/9
f 78/62/8 160/41/8 74/44/8 19/63/8
f 15/51/8 66/48/8 160/41/8 78/62/8
f 66/48/8 16/47/8 77/42/8 160/41/8
f 63/30/1 161/37/1 59/40/1 9/31/1
f 1/23/1 52/179/1 161/37/1 63/30/1
f 52/179/1 3/180/1 62/38/1 161/37/1
f 61/18/4 162/33/4 60/36/4 12/19/4
f 4/15/4 56/14/4 162/33/4 61/18/4
f 56/14/4 2/181/4 64/34/4 162/33/4
f 64/34/7 163/29/7 57/32/7 10/35/7
f 2/181/7 47/24/7 163/29/7 64/34/7
f 47/24/7 1/23/7 63/30/7 163/29/7
f 70/46/4 164/25/4 68/28/4 16/47/4
f 12/19/4 60/36/4 164/25/4 70/46/4
f 60/36/4 10/35/4 69/26/4 164/25/4
f 46/182/6 165/21/6 47/24/6 2/181/6
f 6/171/6 50/170/6 165/21/6 46/182/6
f 50/170/6 5/169/6 55/22/6 165/21/6
f 62/38/5 166/17/5 58/20/5 11/39/5
f 3/180/5 49/183/5 166/17/5 62/38/5
f 49/183/5 4/15/5 61/18/5 166/17/5
f 45/184/4 167/13/4 53/16/4 8/185/4
f 6/186/4 46/187/4 167/13/4 45/184/4
f 46/187/4 2/181/4 56/14/4 167/13/4
f 102/188/3 168/9/3 97/12/3 29/189/3
f 6/186/3 45/184/3 168/9/3 102/188/3
f 45/184/3 8/185/3 101/10/3 168/9/3
f 53/190/2 169/5/2 48/8/2 8/167/2
f 4/15/2 49/183/2 169/5/2 53/190/2
f 49/183/2 3/180/2 51/6/2 169/5/2
f 52/179/1 170/1/1 51/4/1 3/180/1
f 1/23/1 55/191/1 170/1/1 52/179/1
f 55/191/1 5/174/1 54/2/1 170/1/1
